<svg width="414" height="896" viewBox="0 0 414 896" fill="none" xmlns="http://www.w3.org/2000/svg">
<g clip-path="url(#clip0_101_2158)">
<rect width="414" height="896" fill="#FFF9ED"/>
<path d="M46.6758 93.08V97.6H35.0358V104.76H43.9558V109.2H35.0358V121H29.4358V93.08H46.6758ZM60.4867 121.36C58.3534 121.36 56.4334 120.893 54.7267 119.96C53.0201 119 51.6734 117.653 50.6867 115.92C49.7267 114.187 49.2467 112.187 49.2467 109.92C49.2467 107.653 49.7401 105.653 50.7267 103.92C51.7401 102.187 53.1134 100.853 54.8467 99.92C56.5801 98.96 58.5134 98.48 60.6467 98.48C62.7801 98.48 64.7134 98.96 66.4467 99.92C68.1801 100.853 69.5401 102.187 70.5267 103.92C71.5401 105.653 72.0467 107.653 72.0467 109.92C72.0467 112.187 71.5267 114.187 70.4867 115.92C69.4734 117.653 68.0867 119 66.3267 119.96C64.5934 120.893 62.6467 121.36 60.4867 121.36ZM60.4867 116.48C61.5001 116.48 62.4467 116.24 63.3267 115.76C64.2334 115.253 64.9534 114.507 65.4867 113.52C66.0201 112.533 66.2867 111.333 66.2867 109.92C66.2867 107.813 65.7267 106.2 64.6067 105.08C63.5134 103.933 62.1667 103.36 60.5667 103.36C58.9667 103.36 57.6201 103.933 56.5267 105.08C55.4601 106.2 54.9267 107.813 54.9267 109.92C54.9267 112.027 55.4467 113.653 56.4867 114.8C57.5534 115.92 58.8867 116.48 60.4867 116.48ZM81.7545 102.28C82.4745 101.107 83.4079 100.187 84.5545 99.52C85.7279 98.8533 87.0612 98.52 88.5545 98.52V104.4H87.0745C85.3145 104.4 83.9812 104.813 83.0745 105.64C82.1945 106.467 81.7545 107.907 81.7545 109.96V121H76.1545V98.84H81.7545V102.28ZM101.006 98.48C102.66 98.48 104.113 98.8133 105.366 99.48C106.62 100.12 107.606 100.96 108.326 102V98.84H113.966V121.16C113.966 123.213 113.553 125.04 112.726 126.64C111.9 128.267 110.66 129.547 109.006 130.48C107.353 131.44 105.353 131.92 103.006 131.92C99.8597 131.92 97.2731 131.187 95.2464 129.72C93.2464 128.253 92.1131 126.253 91.8464 123.72H97.4064C97.6997 124.733 98.3264 125.533 99.2864 126.12C100.273 126.733 101.46 127.04 102.846 127.04C104.473 127.04 105.793 126.547 106.806 125.56C107.82 124.6 108.326 123.133 108.326 121.16V117.72C107.606 118.76 106.606 119.627 105.326 120.32C104.073 121.013 102.633 121.36 101.006 121.36C99.1397 121.36 97.4331 120.88 95.8864 119.92C94.3397 118.96 93.1131 117.613 92.2064 115.88C91.3264 114.12 90.8864 112.107 90.8864 109.84C90.8864 107.6 91.3264 105.613 92.2064 103.88C93.1131 102.147 94.3264 100.813 95.8464 99.88C97.3931 98.9467 99.1131 98.48 101.006 98.48ZM108.326 109.92C108.326 108.56 108.06 107.4 107.526 106.44C106.993 105.453 106.273 104.707 105.366 104.2C104.46 103.667 103.486 103.4 102.446 103.4C101.406 103.4 100.446 103.653 99.5664 104.16C98.6864 104.667 97.9664 105.413 97.4064 106.4C96.8731 107.36 96.6064 108.507 96.6064 109.84C96.6064 111.173 96.8731 112.347 97.4064 113.36C97.9664 114.347 98.6864 115.107 99.5664 115.64C100.473 116.173 101.433 116.44 102.446 116.44C103.486 116.44 104.46 116.187 105.366 115.68C106.273 115.147 106.993 114.4 107.526 113.44C108.06 112.453 108.326 111.28 108.326 109.92ZM129.276 121.36C127.142 121.36 125.222 120.893 123.516 119.96C121.809 119 120.462 117.653 119.476 115.92C118.516 114.187 118.036 112.187 118.036 109.92C118.036 107.653 118.529 105.653 119.516 103.92C120.529 102.187 121.902 100.853 123.636 99.92C125.369 98.96 127.302 98.48 129.436 98.48C131.569 98.48 133.502 98.96 135.236 99.92C136.969 100.853 138.329 102.187 139.316 103.92C140.329 105.653 140.836 107.653 140.836 109.92C140.836 112.187 140.316 114.187 139.276 115.92C138.262 117.653 136.876 119 135.116 119.96C133.382 120.893 131.436 121.36 129.276 121.36ZM129.276 116.48C130.289 116.48 131.236 116.24 132.116 115.76C133.022 115.253 133.742 114.507 134.276 113.52C134.809 112.533 135.076 111.333 135.076 109.92C135.076 107.813 134.516 106.2 133.396 105.08C132.302 103.933 130.956 103.36 129.356 103.36C127.756 103.36 126.409 103.933 125.316 105.08C124.249 106.2 123.716 107.813 123.716 109.92C123.716 112.027 124.236 113.653 125.276 114.8C126.342 115.92 127.676 116.48 129.276 116.48ZM151.464 103.44V114.16C151.464 114.907 151.637 115.453 151.984 115.8C152.357 116.12 152.97 116.28 153.824 116.28H156.424V121H152.904C148.184 121 145.824 118.707 145.824 114.12V103.44H143.184V98.84H145.824V93.36H151.464V98.84H156.424V103.44H151.464ZM190.343 101.72C190.343 103.213 189.983 104.613 189.263 105.92C188.569 107.227 187.463 108.28 185.943 109.08C184.449 109.88 182.556 110.28 180.263 110.28H175.583V121H169.983V93.08H180.263C182.423 93.08 184.263 93.4533 185.783 94.2C187.303 94.9467 188.436 95.9733 189.183 97.28C189.956 98.5867 190.343 100.067 190.343 101.72ZM180.023 105.76C181.569 105.76 182.716 105.413 183.463 104.72C184.209 104 184.583 103 184.583 101.72C184.583 99 183.063 97.64 180.023 97.64H175.583V105.76H180.023ZM192.879 109.84C192.879 107.6 193.319 105.613 194.199 103.88C195.105 102.147 196.319 100.813 197.839 99.88C199.385 98.9467 201.105 98.48 202.999 98.48C204.652 98.48 206.092 98.8133 207.319 99.48C208.572 100.147 209.572 100.987 210.319 102V98.84H215.959V121H210.319V117.76C209.599 118.8 208.599 119.667 207.319 120.36C206.065 121.027 204.612 121.36 202.959 121.36C201.092 121.36 199.385 120.88 197.839 119.92C196.319 118.96 195.105 117.613 194.199 115.88C193.319 114.12 192.879 112.107 192.879 109.84ZM210.319 109.92C210.319 108.56 210.052 107.4 209.519 106.44C208.985 105.453 208.265 104.707 207.359 104.2C206.452 103.667 205.479 103.4 204.439 103.4C203.399 103.4 202.439 103.653 201.559 104.16C200.679 104.667 199.959 105.413 199.399 106.4C198.865 107.36 198.599 108.507 198.599 109.84C198.599 111.173 198.865 112.347 199.399 113.36C199.959 114.347 200.679 115.107 201.559 115.64C202.465 116.173 203.425 116.44 204.439 116.44C205.479 116.44 206.452 116.187 207.359 115.68C208.265 115.147 208.985 114.4 209.519 113.44C210.052 112.453 210.319 111.28 210.319 109.92ZM229.908 121.36C228.095 121.36 226.468 121.04 225.028 120.4C223.588 119.733 222.441 118.84 221.588 117.72C220.761 116.6 220.308 115.36 220.228 114H225.868C225.975 114.853 226.388 115.56 227.108 116.12C227.855 116.68 228.775 116.96 229.868 116.96C230.935 116.96 231.761 116.747 232.348 116.32C232.961 115.893 233.268 115.347 233.268 114.68C233.268 113.96 232.895 113.427 232.148 113.08C231.428 112.707 230.268 112.307 228.668 111.88C227.015 111.48 225.655 111.067 224.588 110.64C223.548 110.213 222.641 109.56 221.868 108.68C221.121 107.8 220.748 106.613 220.748 105.12C220.748 103.893 221.095 102.773 221.788 101.76C222.508 100.747 223.521 99.9467 224.828 99.36C226.161 98.7733 227.721 98.48 229.508 98.48C232.148 98.48 234.255 99.1467 235.828 100.48C237.401 101.787 238.268 103.56 238.428 105.8H233.068C232.988 104.92 232.615 104.227 231.948 103.72C231.308 103.187 230.441 102.92 229.348 102.92C228.335 102.92 227.548 103.107 226.988 103.48C226.455 103.853 226.188 104.373 226.188 105.04C226.188 105.787 226.561 106.36 227.308 106.76C228.055 107.133 229.215 107.52 230.788 107.92C232.388 108.32 233.708 108.733 234.748 109.16C235.788 109.587 236.681 110.253 237.428 111.16C238.201 112.04 238.601 113.213 238.628 114.68C238.628 115.96 238.268 117.107 237.548 118.12C236.855 119.133 235.841 119.933 234.508 120.52C233.201 121.08 231.668 121.36 229.908 121.36ZM251.705 121.36C249.892 121.36 248.265 121.04 246.825 120.4C245.385 119.733 244.238 118.84 243.385 117.72C242.558 116.6 242.105 115.36 242.025 114H247.665C247.772 114.853 248.185 115.56 248.905 116.12C249.652 116.68 250.572 116.96 251.665 116.96C252.732 116.96 253.558 116.747 254.145 116.32C254.758 115.893 255.065 115.347 255.065 114.68C255.065 113.96 254.692 113.427 253.945 113.08C253.225 112.707 252.065 112.307 250.465 111.88C248.812 111.48 247.452 111.067 246.385 110.64C245.345 110.213 244.438 109.56 243.665 108.68C242.918 107.8 242.545 106.613 242.545 105.12C242.545 103.893 242.892 102.773 243.585 101.76C244.305 100.747 245.318 99.9467 246.625 99.36C247.958 98.7733 249.518 98.48 251.305 98.48C253.945 98.48 256.052 99.1467 257.625 100.48C259.198 101.787 260.065 103.56 260.225 105.8H254.865C254.785 104.92 254.412 104.227 253.745 103.72C253.105 103.187 252.238 102.92 251.145 102.92C250.132 102.92 249.345 103.107 248.785 103.48C248.252 103.853 247.985 104.373 247.985 105.04C247.985 105.787 248.358 106.36 249.105 106.76C249.852 107.133 251.012 107.52 252.585 107.92C254.185 108.32 255.505 108.733 256.545 109.16C257.585 109.587 258.478 110.253 259.225 111.16C259.998 112.04 260.398 113.213 260.425 114.68C260.425 115.96 260.065 117.107 259.345 118.12C258.652 119.133 257.638 119.933 256.305 120.52C254.998 121.08 253.465 121.36 251.705 121.36ZM295.742 98.84L289.262 121H283.222L279.182 105.52L275.142 121H269.062L262.542 98.84H268.222L272.142 115.72L276.382 98.84H282.302L286.462 115.68L290.382 98.84H295.742ZM308.612 121.36C306.478 121.36 304.558 120.893 302.852 119.96C301.145 119 299.798 117.653 298.812 115.92C297.852 114.187 297.372 112.187 297.372 109.92C297.372 107.653 297.865 105.653 298.852 103.92C299.865 102.187 301.238 100.853 302.972 99.92C304.705 98.96 306.638 98.48 308.772 98.48C310.905 98.48 312.838 98.96 314.572 99.92C316.305 100.853 317.665 102.187 318.652 103.92C319.665 105.653 320.172 107.653 320.172 109.92C320.172 112.187 319.652 114.187 318.612 115.92C317.598 117.653 316.212 119 314.452 119.96C312.718 120.893 310.772 121.36 308.612 121.36ZM308.612 116.48C309.625 116.48 310.572 116.24 311.452 115.76C312.358 115.253 313.078 114.507 313.612 113.52C314.145 112.533 314.412 111.333 314.412 109.92C314.412 107.813 313.852 106.2 312.732 105.08C311.638 103.933 310.292 103.36 308.692 103.36C307.092 103.36 305.745 103.933 304.652 105.08C303.585 106.2 303.052 107.813 303.052 109.92C303.052 112.027 303.572 113.653 304.612 114.8C305.678 115.92 307.012 116.48 308.612 116.48ZM329.88 102.28C330.6 101.107 331.533 100.187 332.68 99.52C333.853 98.8533 335.186 98.52 336.68 98.52V104.4H335.2C333.44 104.4 332.106 104.813 331.2 105.64C330.32 106.467 329.88 107.907 329.88 109.96V121H324.28V98.84H329.88V102.28ZM339.011 109.84C339.011 107.6 339.451 105.613 340.331 103.88C341.238 102.147 342.465 100.813 344.011 99.88C345.558 98.9467 347.278 98.48 349.171 98.48C350.611 98.48 351.985 98.8 353.291 99.44C354.598 100.053 355.638 100.88 356.411 101.92V91.4H362.091V121H356.411V117.72C355.718 118.813 354.745 119.693 353.491 120.36C352.238 121.027 350.785 121.36 349.131 121.36C347.265 121.36 345.558 120.88 344.011 119.92C342.465 118.96 341.238 117.613 340.331 115.88C339.451 114.12 339.011 112.107 339.011 109.84ZM356.451 109.92C356.451 108.56 356.185 107.4 355.651 106.44C355.118 105.453 354.398 104.707 353.491 104.2C352.585 103.667 351.611 103.4 350.571 103.4C349.531 103.4 348.571 103.653 347.691 104.16C346.811 104.667 346.091 105.413 345.531 106.4C344.998 107.36 344.731 108.507 344.731 109.84C344.731 111.173 344.998 112.347 345.531 113.36C346.091 114.347 346.811 115.107 347.691 115.64C348.598 116.173 349.558 116.44 350.571 116.44C351.611 116.44 352.585 116.187 353.491 115.68C354.398 115.147 355.118 114.4 355.651 113.44C356.185 112.453 356.451 111.28 356.451 109.92ZM375.361 92.12C378.134 92.12 380.361 92.88 382.041 94.4C383.747 95.8933 384.601 97.96 384.601 100.6C384.601 103.213 383.761 105.213 382.081 106.6C380.401 107.96 378.174 108.64 375.401 108.64L375.241 111.72H370.321L370.121 104.92H371.921C374.241 104.92 376.027 104.613 377.281 104C378.534 103.387 379.161 102.267 379.161 100.64C379.161 99.4667 378.814 98.5333 378.121 97.84C377.454 97.1467 376.534 96.8 375.361 96.8C374.134 96.8 373.174 97.1333 372.481 97.8C371.814 98.4667 371.481 99.3867 371.481 100.56H366.201C366.174 98.9333 366.521 97.48 367.241 96.2C367.961 94.92 369.014 93.92 370.401 93.2C371.814 92.48 373.467 92.12 375.361 92.12ZM372.761 121.28C371.747 121.28 370.907 120.973 370.241 120.36C369.601 119.72 369.281 118.933 369.281 118C369.281 117.067 369.601 116.293 370.241 115.68C370.907 115.04 371.747 114.72 372.761 114.72C373.747 114.72 374.561 115.04 375.201 115.68C375.841 116.293 376.161 117.067 376.161 118C376.161 118.933 375.841 119.72 375.201 120.36C374.561 120.973 373.747 121.28 372.761 121.28Z" fill="#3F3D56"/>
<path d="M45.4171 160.06C46.9371 160.06 48.2504 160.347 49.3571 160.92C50.4771 161.48 51.3304 162.287 51.9171 163.34C52.5171 164.393 52.8171 165.633 52.8171 167.06C52.8171 168.487 52.5171 169.727 51.9171 170.78C51.3304 171.82 50.4771 172.62 49.3571 173.18C48.2504 173.727 46.9371 174 45.4171 174H41.0771V160.06H45.4171ZM45.4171 172.5C47.2171 172.5 48.5904 172.027 49.5371 171.08C50.4838 170.12 50.9571 168.78 50.9571 167.06C50.9571 165.327 50.4771 163.973 49.5171 163C48.5704 162.027 47.2038 161.54 45.4171 161.54H42.8971V172.5H45.4171ZM59.9977 174.18C58.9711 174.18 58.0377 173.947 57.1977 173.48C56.3711 173.013 55.7177 172.353 55.2377 171.5C54.7711 170.633 54.5377 169.633 54.5377 168.5C54.5377 167.38 54.7777 166.393 55.2577 165.54C55.7511 164.673 56.4177 164.013 57.2577 163.56C58.0977 163.093 59.0377 162.86 60.0777 162.86C61.1177 162.86 62.0577 163.093 62.8977 163.56C63.7377 164.013 64.3977 164.667 64.8777 165.52C65.3711 166.373 65.6177 167.367 65.6177 168.5C65.6177 169.633 65.3644 170.633 64.8577 171.5C64.3644 172.353 63.6911 173.013 62.8377 173.48C61.9844 173.947 61.0377 174.18 59.9977 174.18ZM59.9977 172.58C60.6511 172.58 61.2644 172.427 61.8377 172.12C62.4111 171.813 62.8711 171.353 63.2177 170.74C63.5777 170.127 63.7577 169.38 63.7577 168.5C63.7577 167.62 63.5844 166.873 63.2377 166.26C62.8911 165.647 62.4377 165.193 61.8777 164.9C61.3177 164.593 60.7111 164.44 60.0577 164.44C59.3911 164.44 58.7777 164.593 58.2177 164.9C57.6711 165.193 57.2311 165.647 56.8977 166.26C56.5644 166.873 56.3977 167.62 56.3977 168.5C56.3977 169.393 56.5577 170.147 56.8777 170.76C57.2111 171.373 57.6511 171.833 58.1977 172.14C58.7444 172.433 59.3444 172.58 59.9977 172.58ZM73.3507 162.84C74.684 162.84 75.764 163.247 76.5907 164.06C77.4174 164.86 77.8307 166.02 77.8307 167.54V174H76.0307V167.8C76.0307 166.707 75.7574 165.873 75.2107 165.3C74.664 164.713 73.9174 164.42 72.9707 164.42C72.0107 164.42 71.244 164.72 70.6707 165.32C70.1107 165.92 69.8307 166.793 69.8307 167.94V174H68.0107V163.04H69.8307V164.6C70.1907 164.04 70.6774 163.607 71.2907 163.3C71.9174 162.993 72.604 162.84 73.3507 162.84ZM83.0237 164.54V171C83.0237 171.533 83.137 171.913 83.3637 172.14C83.5903 172.353 83.9837 172.46 84.5437 172.46H85.8837V174H84.2437C83.2303 174 82.4703 173.767 81.9637 173.3C81.457 172.833 81.2037 172.067 81.2037 171V164.54H79.7837V163.04H81.2037V160.28H83.0237V163.04H85.8837V164.54H83.0237ZM108.021 163.04L104.601 174H102.721L100.081 165.3L97.4409 174H95.5609L92.1209 163.04H93.9809L96.5009 172.24L99.2209 163.04H101.081L103.741 172.26L106.221 163.04H108.021ZM114.607 174.18C113.58 174.18 112.647 173.947 111.807 173.48C110.98 173.013 110.327 172.353 109.847 171.5C109.38 170.633 109.147 169.633 109.147 168.5C109.147 167.38 109.387 166.393 109.867 165.54C110.36 164.673 111.027 164.013 111.867 163.56C112.707 163.093 113.647 162.86 114.687 162.86C115.727 162.86 116.667 163.093 117.507 163.56C118.347 164.013 119.007 164.667 119.487 165.52C119.98 166.373 120.227 167.367 120.227 168.5C120.227 169.633 119.974 170.633 119.467 171.5C118.974 172.353 118.3 173.013 117.447 173.48C116.594 173.947 115.647 174.18 114.607 174.18ZM114.607 172.58C115.26 172.58 115.874 172.427 116.447 172.12C117.02 171.813 117.48 171.353 117.827 170.74C118.187 170.127 118.367 169.38 118.367 168.5C118.367 167.62 118.194 166.873 117.847 166.26C117.5 165.647 117.047 165.193 116.487 164.9C115.927 164.593 115.32 164.44 114.667 164.44C114 164.44 113.387 164.593 112.827 164.9C112.28 165.193 111.84 165.647 111.507 166.26C111.174 166.873 111.007 167.62 111.007 168.5C111.007 169.393 111.167 170.147 111.487 170.76C111.82 171.373 112.26 171.833 112.807 172.14C113.354 172.433 113.954 172.58 114.607 172.58ZM124.44 164.82C124.76 164.193 125.213 163.707 125.8 163.36C126.4 163.013 127.127 162.84 127.98 162.84V164.72H127.5C125.46 164.72 124.44 165.827 124.44 168.04V174H122.62V163.04H124.44V164.82ZM131.901 164.82C132.221 164.193 132.674 163.707 133.261 163.36C133.861 163.013 134.588 162.84 135.441 162.84V164.72H134.961C132.921 164.72 131.901 165.827 131.901 168.04V174H130.081V163.04H131.901V164.82ZM146.982 163.04L140.382 179.16H138.502L140.662 173.88L136.242 163.04H138.262L141.702 171.92L145.102 163.04H146.982ZM151.171 160.06L150.951 170.06H149.431L149.211 160.06H151.171ZM150.271 174.12C149.925 174.12 149.631 174 149.391 173.76C149.151 173.52 149.031 173.227 149.031 172.88C149.031 172.533 149.151 172.24 149.391 172C149.631 171.76 149.925 171.64 150.271 171.64C150.605 171.64 150.885 171.76 151.111 172C151.351 172.24 151.471 172.533 151.471 172.88C151.471 173.227 151.351 173.52 151.111 173.76C150.885 174 150.605 174.12 150.271 174.12ZM177.621 160.06L173.581 174H171.541L168.301 162.78L164.941 174L162.921 174.02L159.021 160.06H160.961L164.001 171.88L167.361 160.06H169.401L172.601 171.84L175.661 160.06H177.621ZM189.612 168.1C189.612 168.447 189.592 168.813 189.552 169.2H180.792C180.859 170.28 181.226 171.127 181.892 171.74C182.572 172.34 183.392 172.64 184.352 172.64C185.139 172.64 185.792 172.46 186.312 172.1C186.846 171.727 187.219 171.233 187.432 170.62H189.392C189.099 171.673 188.512 172.533 187.632 173.2C186.752 173.853 185.659 174.18 184.352 174.18C183.312 174.18 182.379 173.947 181.552 173.48C180.739 173.013 180.099 172.353 179.632 171.5C179.166 170.633 178.932 169.633 178.932 168.5C178.932 167.367 179.159 166.373 179.612 165.52C180.066 164.667 180.699 164.013 181.512 163.56C182.339 163.093 183.286 162.86 184.352 162.86C185.392 162.86 186.312 163.087 187.112 163.54C187.912 163.993 188.526 164.62 188.952 165.42C189.392 166.207 189.612 167.1 189.612 168.1ZM187.732 167.72C187.732 167.027 187.579 166.433 187.272 165.94C186.966 165.433 186.546 165.053 186.012 164.8C185.492 164.533 184.912 164.4 184.272 164.4C183.352 164.4 182.566 164.693 181.912 165.28C181.272 165.867 180.906 166.68 180.812 167.72H187.732ZM211.947 163.04L208.527 174H206.647L204.007 165.3L201.367 174H199.487L196.047 163.04H197.907L200.427 172.24L203.147 163.04H205.007L207.667 172.26L210.147 163.04H211.947ZM214.693 161.26C214.346 161.26 214.053 161.14 213.813 160.9C213.573 160.66 213.453 160.367 213.453 160.02C213.453 159.673 213.573 159.38 213.813 159.14C214.053 158.9 214.346 158.78 214.693 158.78C215.026 158.78 215.306 158.9 215.533 159.14C215.773 159.38 215.893 159.673 215.893 160.02C215.893 160.367 215.773 160.66 215.533 160.9C215.306 161.14 215.026 161.26 214.693 161.26ZM215.573 163.04V174H213.753V163.04H215.573ZM220.495 159.2V174H218.675V159.2H220.495ZM225.417 159.2V174H223.597V159.2H225.417ZM239.291 162.84C240.117 162.84 240.864 163.02 241.531 163.38C242.197 163.727 242.717 164.253 243.091 164.96C243.477 165.667 243.671 166.527 243.671 167.54V174H241.871V167.8C241.871 166.707 241.597 165.873 241.051 165.3C240.504 164.713 239.757 164.42 238.811 164.42C237.851 164.42 237.084 164.72 236.511 165.32C235.951 165.92 235.671 166.793 235.671 167.94V174H233.851V159.2H235.671V164.6C236.031 164.04 236.524 163.607 237.151 163.3C237.791 162.993 238.504 162.84 239.291 162.84ZM256.644 168.1C256.644 168.447 256.624 168.813 256.584 169.2H247.824C247.89 170.28 248.257 171.127 248.924 171.74C249.604 172.34 250.424 172.64 251.384 172.64C252.17 172.64 252.824 172.46 253.344 172.1C253.877 171.727 254.25 171.233 254.464 170.62H256.424C256.13 171.673 255.544 172.533 254.664 173.2C253.784 173.853 252.69 174.18 251.384 174.18C250.344 174.18 249.41 173.947 248.584 173.48C247.77 173.013 247.13 172.353 246.664 171.5C246.197 170.633 245.964 169.633 245.964 168.5C245.964 167.367 246.19 166.373 246.644 165.52C247.097 164.667 247.73 164.013 248.544 163.56C249.37 163.093 250.317 162.86 251.384 162.86C252.424 162.86 253.344 163.087 254.144 163.54C254.944 163.993 255.557 164.62 255.984 165.42C256.424 166.207 256.644 167.1 256.644 168.1ZM254.764 167.72C254.764 167.027 254.61 166.433 254.304 165.94C253.997 165.433 253.577 165.053 253.044 164.8C252.524 164.533 251.944 164.4 251.304 164.4C250.384 164.4 249.597 164.693 248.944 165.28C248.304 165.867 247.937 166.68 247.844 167.72H254.764ZM260.866 159.2V174H259.046V159.2H260.866ZM265.788 165.06C266.148 164.433 266.681 163.913 267.388 163.5C268.108 163.073 268.941 162.86 269.888 162.86C270.861 162.86 271.741 163.093 272.528 163.56C273.328 164.027 273.954 164.687 274.408 165.54C274.861 166.38 275.088 167.36 275.088 168.48C275.088 169.587 274.861 170.573 274.408 171.44C273.954 172.307 273.328 172.98 272.528 173.46C271.741 173.94 270.861 174.18 269.888 174.18C268.954 174.18 268.128 173.973 267.408 173.56C266.701 173.133 266.161 172.607 265.788 171.98V179.2H263.968V163.04H265.788V165.06ZM273.228 168.48C273.228 167.653 273.061 166.933 272.728 166.32C272.394 165.707 271.941 165.24 271.368 164.92C270.808 164.6 270.188 164.44 269.508 164.44C268.841 164.44 268.221 164.607 267.648 164.94C267.088 165.26 266.634 165.733 266.288 166.36C265.954 166.973 265.788 167.687 265.788 168.5C265.788 169.327 265.954 170.053 266.288 170.68C266.634 171.293 267.088 171.767 267.648 172.1C268.221 172.42 268.841 172.58 269.508 172.58C270.188 172.58 270.808 172.42 271.368 172.1C271.941 171.767 272.394 171.293 272.728 170.68C273.061 170.053 273.228 169.32 273.228 168.48ZM292.255 163.04L285.655 179.16H283.775L285.935 173.88L281.515 163.04H283.535L286.975 171.92L290.375 163.04H292.255ZM298.865 174.18C297.838 174.18 296.905 173.947 296.065 173.48C295.238 173.013 294.585 172.353 294.105 171.5C293.638 170.633 293.405 169.633 293.405 168.5C293.405 167.38 293.645 166.393 294.125 165.54C294.618 164.673 295.285 164.013 296.125 163.56C296.965 163.093 297.905 162.86 298.945 162.86C299.985 162.86 300.925 163.093 301.765 163.56C302.605 164.013 303.265 164.667 303.745 165.52C304.238 166.373 304.485 167.367 304.485 168.5C304.485 169.633 304.232 170.633 303.725 171.5C303.232 172.353 302.558 173.013 301.705 173.48C300.852 173.947 299.905 174.18 298.865 174.18ZM298.865 172.58C299.518 172.58 300.132 172.427 300.705 172.12C301.278 171.813 301.738 171.353 302.085 170.74C302.445 170.127 302.625 169.38 302.625 168.5C302.625 167.62 302.452 166.873 302.105 166.26C301.758 165.647 301.305 165.193 300.745 164.9C300.185 164.593 299.578 164.44 298.925 164.44C298.258 164.44 297.645 164.593 297.085 164.9C296.538 165.193 296.098 165.647 295.765 166.26C295.432 166.873 295.265 167.62 295.265 168.5C295.265 169.393 295.425 170.147 295.745 170.76C296.078 171.373 296.518 171.833 297.065 172.14C297.612 172.433 298.212 172.58 298.865 172.58ZM316.598 163.04V174H314.778V172.38C314.431 172.94 313.945 173.38 313.318 173.7C312.705 174.007 312.025 174.16 311.278 174.16C310.425 174.16 309.658 173.987 308.978 173.64C308.298 173.28 307.758 172.747 307.358 172.04C306.971 171.333 306.778 170.473 306.778 169.46V163.04H308.578V169.22C308.578 170.3 308.851 171.133 309.398 171.72C309.945 172.293 310.691 172.58 311.638 172.58C312.611 172.58 313.378 172.28 313.938 171.68C314.498 171.08 314.778 170.207 314.778 169.06V163.04H316.598ZM326.823 164.82C327.143 164.193 327.596 163.707 328.183 163.36C328.783 163.013 329.51 162.84 330.363 162.84V164.72H329.883C327.843 164.72 326.823 165.827 326.823 168.04V174H325.003V163.04H326.823V164.82ZM342.464 168.1C342.464 168.447 342.444 168.813 342.404 169.2H333.644C333.71 170.28 334.077 171.127 334.744 171.74C335.424 172.34 336.244 172.64 337.204 172.64C337.99 172.64 338.644 172.46 339.164 172.1C339.697 171.727 340.07 171.233 340.284 170.62H342.244C341.95 171.673 341.364 172.533 340.484 173.2C339.604 173.853 338.51 174.18 337.204 174.18C336.164 174.18 335.23 173.947 334.404 173.48C333.59 173.013 332.95 172.353 332.484 171.5C332.017 170.633 331.784 169.633 331.784 168.5C331.784 167.367 332.01 166.373 332.464 165.52C332.917 164.667 333.55 164.013 334.364 163.56C335.19 163.093 336.137 162.86 337.204 162.86C338.244 162.86 339.164 163.087 339.964 163.54C340.764 163.993 341.377 164.62 341.804 165.42C342.244 166.207 342.464 167.1 342.464 168.1ZM340.584 167.72C340.584 167.027 340.43 166.433 340.124 165.94C339.817 165.433 339.397 165.053 338.864 164.8C338.344 164.533 337.764 164.4 337.124 164.4C336.204 164.4 335.417 164.693 334.764 165.28C334.124 165.867 333.757 166.68 333.664 167.72H340.584ZM348.746 174.18C347.906 174.18 347.153 174.04 346.486 173.76C345.82 173.467 345.293 173.067 344.906 172.56C344.52 172.04 344.306 171.447 344.266 170.78H346.146C346.2 171.327 346.453 171.773 346.906 172.12C347.373 172.467 347.98 172.64 348.726 172.64C349.42 172.64 349.966 172.487 350.366 172.18C350.766 171.873 350.966 171.487 350.966 171.02C350.966 170.54 350.753 170.187 350.326 169.96C349.9 169.72 349.24 169.487 348.346 169.26C347.533 169.047 346.866 168.833 346.346 168.62C345.84 168.393 345.4 168.067 345.026 167.64C344.666 167.2 344.486 166.627 344.486 165.92C344.486 165.36 344.653 164.847 344.986 164.38C345.32 163.913 345.793 163.547 346.406 163.28C347.02 163 347.72 162.86 348.506 162.86C349.72 162.86 350.7 163.167 351.446 163.78C352.193 164.393 352.593 165.233 352.646 166.3H350.826C350.786 165.727 350.553 165.267 350.126 164.92C349.713 164.573 349.153 164.4 348.446 164.4C347.793 164.4 347.273 164.54 346.886 164.82C346.5 165.1 346.306 165.467 346.306 165.92C346.306 166.28 346.42 166.58 346.646 166.82C346.886 167.047 347.18 167.233 347.526 167.38C347.886 167.513 348.38 167.667 349.006 167.84C349.793 168.053 350.433 168.267 350.926 168.48C351.42 168.68 351.84 168.987 352.186 169.4C352.546 169.813 352.733 170.353 352.746 171.02C352.746 171.62 352.58 172.16 352.246 172.64C351.913 173.12 351.44 173.5 350.826 173.78C350.226 174.047 349.533 174.18 348.746 174.18ZM365.315 168.1C365.315 168.447 365.295 168.813 365.255 169.2H356.495C356.562 170.28 356.929 171.127 357.595 171.74C358.275 172.34 359.095 172.64 360.055 172.64C360.842 172.64 361.495 172.46 362.015 172.1C362.549 171.727 362.922 171.233 363.135 170.62H365.095C364.802 171.673 364.215 172.533 363.335 173.2C362.455 173.853 361.362 174.18 360.055 174.18C359.015 174.18 358.082 173.947 357.255 173.48C356.442 173.013 355.802 172.353 355.335 171.5C354.869 170.633 354.635 169.633 354.635 168.5C354.635 167.367 354.862 166.373 355.315 165.52C355.769 164.667 356.402 164.013 357.215 163.56C358.042 163.093 358.989 162.86 360.055 162.86C361.095 162.86 362.015 163.087 362.815 163.54C363.615 163.993 364.229 164.62 364.655 165.42C365.095 166.207 365.315 167.1 365.315 168.1ZM363.435 167.72C363.435 167.027 363.282 166.433 362.975 165.94C362.669 165.433 362.249 165.053 361.715 164.8C361.195 164.533 360.615 164.4 359.975 164.4C359.055 164.4 358.269 164.693 357.615 165.28C356.975 165.867 356.609 166.68 356.515 167.72H363.435ZM369.938 164.54V171C369.938 171.533 370.051 171.913 370.278 172.14C370.504 172.353 370.898 172.46 371.458 172.46H372.798V174H371.158C370.144 174 369.384 173.767 368.878 173.3C368.371 172.833 368.118 172.067 368.118 171V164.54H366.698V163.04H368.118V160.28H369.938V163.04H372.798V164.54H369.938ZM140.625 193.04L134.025 209.16H132.145L134.305 203.88L129.885 193.04H131.905L135.345 201.92L138.745 193.04H140.625ZM147.234 204.18C146.207 204.18 145.274 203.947 144.434 203.48C143.607 203.013 142.954 202.353 142.474 201.5C142.007 200.633 141.774 199.633 141.774 198.5C141.774 197.38 142.014 196.393 142.494 195.54C142.987 194.673 143.654 194.013 144.494 193.56C145.334 193.093 146.274 192.86 147.314 192.86C148.354 192.86 149.294 193.093 150.134 193.56C150.974 194.013 151.634 194.667 152.114 195.52C152.607 196.373 152.854 197.367 152.854 198.5C152.854 199.633 152.601 200.633 152.094 201.5C151.601 202.353 150.927 203.013 150.074 203.48C149.221 203.947 148.274 204.18 147.234 204.18ZM147.234 202.58C147.887 202.58 148.501 202.427 149.074 202.12C149.647 201.813 150.107 201.353 150.454 200.74C150.814 200.127 150.994 199.38 150.994 198.5C150.994 197.62 150.821 196.873 150.474 196.26C150.127 195.647 149.674 195.193 149.114 194.9C148.554 194.593 147.947 194.44 147.294 194.44C146.627 194.44 146.014 194.593 145.454 194.9C144.907 195.193 144.467 195.647 144.134 196.26C143.801 196.873 143.634 197.62 143.634 198.5C143.634 199.393 143.794 200.147 144.114 200.76C144.447 201.373 144.887 201.833 145.434 202.14C145.981 202.433 146.581 202.58 147.234 202.58ZM164.967 193.04V204H163.147V202.38C162.8 202.94 162.314 203.38 161.687 203.7C161.074 204.007 160.394 204.16 159.647 204.16C158.794 204.16 158.027 203.987 157.347 203.64C156.667 203.28 156.127 202.747 155.727 202.04C155.34 201.333 155.147 200.473 155.147 199.46V193.04H156.947V199.22C156.947 200.3 157.22 201.133 157.767 201.72C158.314 202.293 159.06 202.58 160.007 202.58C160.98 202.58 161.747 202.28 162.307 201.68C162.867 201.08 163.147 200.207 163.147 199.06V193.04H164.967ZM169.86 194.82C170.18 194.193 170.633 193.707 171.22 193.36C171.82 193.013 172.547 192.84 173.4 192.84V194.72H172.92C170.88 194.72 169.86 195.827 169.86 198.04V204H168.04V193.04H169.86V194.82ZM182.653 195.06C183.013 194.433 183.546 193.913 184.253 193.5C184.973 193.073 185.806 192.86 186.753 192.86C187.726 192.86 188.606 193.093 189.393 193.56C190.193 194.027 190.82 194.687 191.273 195.54C191.726 196.38 191.953 197.36 191.953 198.48C191.953 199.587 191.726 200.573 191.273 201.44C190.82 202.307 190.193 202.98 189.393 203.46C188.606 203.94 187.726 204.18 186.753 204.18C185.82 204.18 184.993 203.973 184.273 203.56C183.566 203.133 183.026 202.607 182.653 201.98V209.2H180.833V193.04H182.653V195.06ZM190.093 198.48C190.093 197.653 189.926 196.933 189.593 196.32C189.26 195.707 188.806 195.24 188.233 194.92C187.673 194.6 187.053 194.44 186.373 194.44C185.706 194.44 185.086 194.607 184.513 194.94C183.953 195.26 183.5 195.733 183.153 196.36C182.82 196.973 182.653 197.687 182.653 198.5C182.653 199.327 182.82 200.053 183.153 200.68C183.5 201.293 183.953 201.767 184.513 202.1C185.086 202.42 185.706 202.58 186.373 202.58C187.053 202.58 187.673 202.42 188.233 202.1C188.806 201.767 189.26 201.293 189.593 200.68C189.926 200.053 190.093 199.32 190.093 198.48ZM193.669 198.48C193.669 197.36 193.895 196.38 194.349 195.54C194.802 194.687 195.422 194.027 196.209 193.56C197.009 193.093 197.895 192.86 198.869 192.86C199.829 192.86 200.662 193.067 201.369 193.48C202.075 193.893 202.602 194.413 202.949 195.04V193.04H204.789V204H202.949V201.96C202.589 202.6 202.049 203.133 201.329 203.56C200.622 203.973 199.795 204.18 198.849 204.18C197.875 204.18 196.995 203.94 196.209 203.46C195.422 202.98 194.802 202.307 194.349 201.44C193.895 200.573 193.669 199.587 193.669 198.48ZM202.949 198.5C202.949 197.673 202.782 196.953 202.449 196.34C202.115 195.727 201.662 195.26 201.089 194.94C200.529 194.607 199.909 194.44 199.229 194.44C198.549 194.44 197.929 194.6 197.369 194.92C196.809 195.24 196.362 195.707 196.029 196.32C195.695 196.933 195.529 197.653 195.529 198.48C195.529 199.32 195.695 200.053 196.029 200.68C196.362 201.293 196.809 201.767 197.369 202.1C197.929 202.42 198.549 202.58 199.229 202.58C199.909 202.58 200.529 202.42 201.089 202.1C201.662 201.767 202.115 201.293 202.449 200.68C202.782 200.053 202.949 199.327 202.949 198.5ZM211.744 204.18C210.904 204.18 210.151 204.04 209.484 203.76C208.818 203.467 208.291 203.067 207.904 202.56C207.518 202.04 207.304 201.447 207.264 200.78H209.144C209.198 201.327 209.451 201.773 209.904 202.12C210.371 202.467 210.978 202.64 211.724 202.64C212.418 202.64 212.964 202.487 213.364 202.18C213.764 201.873 213.964 201.487 213.964 201.02C213.964 200.54 213.751 200.187 213.324 199.96C212.898 199.72 212.238 199.487 211.344 199.26C210.531 199.047 209.864 198.833 209.344 198.62C208.838 198.393 208.398 198.067 208.024 197.64C207.664 197.2 207.484 196.627 207.484 195.92C207.484 195.36 207.651 194.847 207.984 194.38C208.318 193.913 208.791 193.547 209.404 193.28C210.018 193 210.718 192.86 211.504 192.86C212.718 192.86 213.698 193.167 214.444 193.78C215.191 194.393 215.591 195.233 215.644 196.3H213.824C213.784 195.727 213.551 195.267 213.124 194.92C212.711 194.573 212.151 194.4 211.444 194.4C210.791 194.4 210.271 194.54 209.884 194.82C209.498 195.1 209.304 195.467 209.304 195.92C209.304 196.28 209.418 196.58 209.644 196.82C209.884 197.047 210.178 197.233 210.524 197.38C210.884 197.513 211.378 197.667 212.004 197.84C212.791 198.053 213.431 198.267 213.924 198.48C214.418 198.68 214.838 198.987 215.184 199.4C215.544 199.813 215.731 200.353 215.744 201.02C215.744 201.62 215.578 202.16 215.244 202.64C214.911 203.12 214.438 203.5 213.824 203.78C213.224 204.047 212.531 204.18 211.744 204.18ZM222.193 204.18C221.353 204.18 220.6 204.04 219.933 203.76C219.267 203.467 218.74 203.067 218.353 202.56C217.967 202.04 217.753 201.447 217.713 200.78H219.593C219.647 201.327 219.9 201.773 220.353 202.12C220.82 202.467 221.427 202.64 222.173 202.64C222.867 202.64 223.413 202.487 223.813 202.18C224.213 201.873 224.413 201.487 224.413 201.02C224.413 200.54 224.2 200.187 223.773 199.96C223.347 199.72 222.687 199.487 221.793 199.26C220.98 199.047 220.313 198.833 219.793 198.62C219.287 198.393 218.847 198.067 218.473 197.64C218.113 197.2 217.933 196.627 217.933 195.92C217.933 195.36 218.1 194.847 218.433 194.38C218.767 193.913 219.24 193.547 219.853 193.28C220.467 193 221.167 192.86 221.953 192.86C223.167 192.86 224.147 193.167 224.893 193.78C225.64 194.393 226.04 195.233 226.093 196.3H224.273C224.233 195.727 224 195.267 223.573 194.92C223.16 194.573 222.6 194.4 221.893 194.4C221.24 194.4 220.72 194.54 220.333 194.82C219.947 195.1 219.753 195.467 219.753 195.92C219.753 196.28 219.867 196.58 220.093 196.82C220.333 197.047 220.627 197.233 220.973 197.38C221.333 197.513 221.827 197.667 222.453 197.84C223.24 198.053 223.88 198.267 224.373 198.48C224.867 198.68 225.287 198.987 225.633 199.4C225.993 199.813 226.18 200.353 226.193 201.02C226.193 201.62 226.027 202.16 225.693 202.64C225.36 203.12 224.887 203.5 224.273 203.78C223.673 204.047 222.98 204.18 222.193 204.18ZM243.363 193.04L239.943 204H238.063L235.423 195.3L232.783 204H230.903L227.463 193.04H229.323L231.843 202.24L234.563 193.04H236.423L239.083 202.26L241.563 193.04H243.363ZM249.949 204.18C248.922 204.18 247.989 203.947 247.149 203.48C246.322 203.013 245.669 202.353 245.189 201.5C244.722 200.633 244.489 199.633 244.489 198.5C244.489 197.38 244.729 196.393 245.209 195.54C245.702 194.673 246.369 194.013 247.209 193.56C248.049 193.093 248.989 192.86 250.029 192.86C251.069 192.86 252.009 193.093 252.849 193.56C253.689 194.013 254.349 194.667 254.829 195.52C255.322 196.373 255.569 197.367 255.569 198.5C255.569 199.633 255.316 200.633 254.809 201.5C254.316 202.353 253.642 203.013 252.789 203.48C251.936 203.947 250.989 204.18 249.949 204.18ZM249.949 202.58C250.602 202.58 251.216 202.427 251.789 202.12C252.362 201.813 252.822 201.353 253.169 200.74C253.529 200.127 253.709 199.38 253.709 198.5C253.709 197.62 253.536 196.873 253.189 196.26C252.842 195.647 252.389 195.193 251.829 194.9C251.269 194.593 250.662 194.44 250.009 194.44C249.342 194.44 248.729 194.593 248.169 194.9C247.622 195.193 247.182 195.647 246.849 196.26C246.516 196.873 246.349 197.62 246.349 198.5C246.349 199.393 246.509 200.147 246.829 200.76C247.162 201.373 247.602 201.833 248.149 202.14C248.696 202.433 249.296 202.58 249.949 202.58ZM259.782 194.82C260.102 194.193 260.555 193.707 261.142 193.36C261.742 193.013 262.469 192.84 263.322 192.84V194.72H262.842C260.802 194.72 259.782 195.827 259.782 198.04V204H257.962V193.04H259.782V194.82ZM264.743 198.48C264.743 197.36 264.969 196.38 265.423 195.54C265.876 194.687 266.496 194.027 267.283 193.56C268.083 193.093 268.976 192.86 269.963 192.86C270.816 192.86 271.609 193.06 272.343 193.46C273.076 193.847 273.636 194.36 274.023 195V189.2H275.863V204H274.023V201.94C273.663 202.593 273.129 203.133 272.423 203.56C271.716 203.973 270.889 204.18 269.943 204.18C268.969 204.18 268.083 203.94 267.283 203.46C266.496 202.98 265.876 202.307 265.423 201.44C264.969 200.573 264.743 199.587 264.743 198.48ZM274.023 198.5C274.023 197.673 273.856 196.953 273.523 196.34C273.189 195.727 272.736 195.26 272.163 194.94C271.603 194.607 270.983 194.44 270.303 194.44C269.623 194.44 269.003 194.6 268.443 194.92C267.883 195.24 267.436 195.707 267.103 196.32C266.769 196.933 266.603 197.653 266.603 198.48C266.603 199.32 266.769 200.053 267.103 200.68C267.436 201.293 267.883 201.767 268.443 202.1C269.003 202.42 269.623 202.58 270.303 202.58C270.983 202.58 271.603 202.42 272.163 202.1C272.736 201.767 273.189 201.293 273.523 200.68C273.856 200.053 274.023 199.327 274.023 198.5ZM281.298 190.06L281.078 200.06H279.558L279.338 190.06H281.298ZM280.398 204.12C280.052 204.12 279.758 204 279.518 203.76C279.278 203.52 279.158 203.227 279.158 202.88C279.158 202.533 279.278 202.24 279.518 202C279.758 201.76 280.052 201.64 280.398 201.64C280.732 201.64 281.012 201.76 281.238 202C281.478 202.24 281.598 202.533 281.598 202.88C281.598 203.227 281.478 203.52 281.238 203.76C281.012 204 280.732 204.12 280.398 204.12Z" fill="#3F3D56" fill-opacity="0.6"/>
<path d="M91.8104 743.515C92.9704 743.515 93.9654 743.725 94.7954 744.145C95.6254 744.565 96.2604 745.17 96.7004 745.96C97.1404 746.75 97.3604 747.69 97.3604 748.78C97.3604 749.86 97.1404 750.795 96.7004 751.585C96.2604 752.365 95.6254 752.965 94.7954 753.385C93.9654 753.795 92.9704 754 91.8104 754H88.7054V743.515H91.8104ZM91.8104 753.13C93.2704 753.13 94.3804 752.75 95.1404 751.99C95.9104 751.22 96.2954 750.15 96.2954 748.78C96.2954 747.4 95.9104 746.325 95.1404 745.555C94.3804 744.775 93.2704 744.385 91.8104 744.385H89.7554V753.13H91.8104ZM102.881 754.12C102.111 754.12 101.416 753.95 100.796 753.61C100.186 753.26 99.7012 752.77 99.3412 752.14C98.9912 751.5 98.8162 750.755 98.8162 749.905C98.8162 749.055 98.9962 748.315 99.3562 747.685C99.7162 747.045 100.206 746.555 100.826 746.215C101.446 745.865 102.141 745.69 102.911 745.69C103.681 745.69 104.376 745.865 104.996 746.215C105.626 746.555 106.116 747.045 106.466 747.685C106.826 748.315 107.006 749.055 107.006 749.905C107.006 750.745 106.826 751.485 106.466 752.125C106.106 752.765 105.611 753.26 104.981 753.61C104.351 753.95 103.651 754.12 102.881 754.12ZM102.881 753.205C103.421 753.205 103.921 753.085 104.381 752.845C104.841 752.595 105.211 752.225 105.491 751.735C105.781 751.235 105.926 750.625 105.926 749.905C105.926 749.185 105.786 748.58 105.506 748.09C105.226 747.59 104.856 747.22 104.396 746.98C103.936 746.73 103.436 746.605 102.896 746.605C102.356 746.605 101.856 746.73 101.396 746.98C100.936 747.22 100.566 747.59 100.286 748.09C100.016 748.58 99.8812 749.185 99.8812 749.905C99.8812 750.625 100.016 751.235 100.286 751.735C100.566 752.225 100.931 752.595 101.381 752.845C101.841 753.085 102.341 753.205 102.881 753.205ZM112.76 745.66C113.74 745.66 114.54 745.965 115.16 746.575C115.78 747.175 116.09 748.05 116.09 749.2V754H115.055V749.32C115.055 748.43 114.83 747.75 114.38 747.28C113.94 746.81 113.335 746.575 112.565 746.575C111.775 746.575 111.145 746.825 110.675 747.325C110.205 747.825 109.97 748.56 109.97 749.53V754H108.92V745.81H109.97V747.205C110.23 746.705 110.605 746.325 111.095 746.065C111.585 745.795 112.14 745.66 112.76 745.66ZM118.547 743.515H119.762L118.442 746.755H117.677L118.547 743.515ZM122.736 746.695V751.78C122.736 752.28 122.831 752.625 123.021 752.815C123.211 753.005 123.546 753.1 124.026 753.1H124.986V754H123.861C123.121 754 122.571 753.83 122.211 753.49C121.851 753.14 121.671 752.57 121.671 751.78V746.695H120.531V745.81H121.671V743.755H122.736V745.81H124.986V746.695H122.736ZM134.734 745.66C135.354 745.66 135.909 745.79 136.399 746.05C136.899 746.31 137.289 746.71 137.569 747.25C137.859 747.78 138.004 748.43 138.004 749.2V754H136.969V749.32C136.969 748.43 136.744 747.75 136.294 747.28C135.854 746.81 135.249 746.575 134.479 746.575C133.689 746.575 133.059 746.825 132.589 747.325C132.119 747.825 131.884 748.56 131.884 749.53V754H130.834V742.9H131.884V747.205C132.144 746.715 132.524 746.335 133.024 746.065C133.534 745.795 134.104 745.66 134.734 745.66ZM139.846 749.89C139.846 749.05 140.011 748.315 140.341 747.685C140.681 747.045 141.146 746.555 141.736 746.215C142.336 745.865 143.011 745.69 143.761 745.69C144.541 745.69 145.211 745.87 145.771 746.23C146.341 746.59 146.751 747.05 147.001 747.61V745.81H148.051V754H147.001V752.185C146.741 752.745 146.326 753.21 145.756 753.58C145.196 753.94 144.526 754.12 143.746 754.12C143.006 754.12 142.336 753.945 141.736 753.595C141.146 753.245 140.681 752.75 140.341 752.11C140.011 751.47 139.846 750.73 139.846 749.89ZM147.001 749.905C147.001 749.245 146.866 748.665 146.596 748.165C146.326 747.665 145.956 747.28 145.486 747.01C145.026 746.74 144.516 746.605 143.956 746.605C143.376 746.605 142.856 746.735 142.396 746.995C141.936 747.255 141.571 747.635 141.301 748.135C141.041 748.625 140.911 749.21 140.911 749.89C140.911 750.56 141.041 751.15 141.301 751.66C141.571 752.16 141.936 752.545 142.396 752.815C142.856 753.075 143.376 753.205 143.956 753.205C144.516 753.205 145.026 753.07 145.486 752.8C145.956 752.53 146.326 752.145 146.596 751.645C146.866 751.145 147.001 750.565 147.001 749.905ZM153.359 752.98L156.119 745.81H157.229L153.944 754H152.759L149.474 745.81H150.599L153.359 752.98ZM166.062 749.485C166.062 749.845 166.052 750.12 166.032 750.31H159.237C159.267 750.93 159.417 751.46 159.687 751.9C159.957 752.34 160.312 752.675 160.752 752.905C161.192 753.125 161.672 753.235 162.192 753.235C162.872 753.235 163.442 753.07 163.902 752.74C164.372 752.41 164.682 751.965 164.832 751.405H165.942C165.742 752.205 165.312 752.86 164.652 753.37C164.002 753.87 163.182 754.12 162.192 754.12C161.422 754.12 160.732 753.95 160.122 753.61C159.512 753.26 159.032 752.77 158.682 752.14C158.342 751.5 158.172 750.755 158.172 749.905C158.172 749.055 158.342 748.31 158.682 747.67C159.022 747.03 159.497 746.54 160.107 746.2C160.717 745.86 161.412 745.69 162.192 745.69C162.972 745.69 163.652 745.86 164.232 746.2C164.822 746.54 165.272 747 165.582 747.58C165.902 748.15 166.062 748.785 166.062 749.485ZM164.997 749.455C165.007 748.845 164.882 748.325 164.622 747.895C164.372 747.465 164.027 747.14 163.587 746.92C163.147 746.7 162.667 746.59 162.147 746.59C161.367 746.59 160.702 746.84 160.152 747.34C159.602 747.84 159.297 748.545 159.237 749.455H164.997ZM171.619 749.89C171.619 749.05 171.784 748.315 172.114 747.685C172.454 747.045 172.919 746.555 173.509 746.215C174.109 745.865 174.784 745.69 175.534 745.69C176.314 745.69 176.984 745.87 177.544 746.23C178.114 746.59 178.524 747.05 178.774 747.61V745.81H179.824V754H178.774V752.185C178.514 752.745 178.099 753.21 177.529 753.58C176.969 753.94 176.299 754.12 175.519 754.12C174.779 754.12 174.109 753.945 173.509 753.595C172.919 753.245 172.454 752.75 172.114 752.11C171.784 751.47 171.619 750.73 171.619 749.89ZM178.774 749.905C178.774 749.245 178.639 748.665 178.369 748.165C178.099 747.665 177.729 747.28 177.259 747.01C176.799 746.74 176.289 746.605 175.729 746.605C175.149 746.605 174.629 746.735 174.169 746.995C173.709 747.255 173.344 747.635 173.074 748.135C172.814 748.625 172.684 749.21 172.684 749.89C172.684 750.56 172.814 751.15 173.074 751.66C173.344 752.16 173.709 752.545 174.169 752.815C174.629 753.075 175.149 753.205 175.729 753.205C176.289 753.205 176.799 753.07 177.259 752.8C177.729 752.53 178.099 752.145 178.369 751.645C178.639 751.145 178.774 750.565 178.774 749.905ZM186.061 745.66C187.041 745.66 187.841 745.965 188.461 746.575C189.081 747.175 189.391 748.05 189.391 749.2V754H188.356V749.32C188.356 748.43 188.131 747.75 187.681 747.28C187.241 746.81 186.636 746.575 185.866 746.575C185.076 746.575 184.446 746.825 183.976 747.325C183.506 747.825 183.271 748.56 183.271 749.53V754H182.221V745.81H183.271V747.205C183.531 746.705 183.906 746.325 184.396 746.065C184.886 745.795 185.441 745.66 186.061 745.66ZM195.349 749.89C195.349 749.05 195.514 748.315 195.844 747.685C196.184 747.045 196.649 746.555 197.239 746.215C197.839 745.865 198.514 745.69 199.264 745.69C200.044 745.69 200.714 745.87 201.274 746.23C201.844 746.59 202.254 747.05 202.504 747.61V745.81H203.554V754H202.504V752.185C202.244 752.745 201.829 753.21 201.259 753.58C200.699 753.94 200.029 754.12 199.249 754.12C198.509 754.12 197.839 753.945 197.239 753.595C196.649 753.245 196.184 752.75 195.844 752.11C195.514 751.47 195.349 750.73 195.349 749.89ZM202.504 749.905C202.504 749.245 202.369 748.665 202.099 748.165C201.829 747.665 201.459 747.28 200.989 747.01C200.529 746.74 200.019 746.605 199.459 746.605C198.879 746.605 198.359 746.735 197.899 746.995C197.439 747.255 197.074 747.635 196.804 748.135C196.544 748.625 196.414 749.21 196.414 749.89C196.414 750.56 196.544 751.15 196.804 751.66C197.074 752.16 197.439 752.545 197.899 752.815C198.359 753.075 198.879 753.205 199.459 753.205C200.019 753.205 200.529 753.07 200.989 752.8C201.459 752.53 201.829 752.145 202.099 751.645C202.369 751.145 202.504 750.565 202.504 749.905ZM205.471 749.905C205.471 749.055 205.641 748.315 205.981 747.685C206.321 747.045 206.791 746.555 207.391 746.215C207.991 745.865 208.676 745.69 209.446 745.69C210.456 745.69 211.286 745.94 211.936 746.44C212.596 746.94 213.021 747.62 213.211 748.48H212.086C211.946 747.89 211.641 747.43 211.171 747.1C210.711 746.76 210.136 746.59 209.446 746.59C208.896 746.59 208.401 746.715 207.961 746.965C207.521 747.215 207.171 747.59 206.911 748.09C206.661 748.58 206.536 749.185 206.536 749.905C206.536 750.625 206.661 751.235 206.911 751.735C207.171 752.235 207.521 752.61 207.961 752.86C208.401 753.11 208.896 753.235 209.446 753.235C210.136 753.235 210.711 753.07 211.171 752.74C211.641 752.4 211.946 751.93 212.086 751.33H213.211C213.021 752.17 212.596 752.845 211.936 753.355C211.276 753.865 210.446 754.12 209.446 754.12C208.676 754.12 207.991 753.95 207.391 753.61C206.791 753.26 206.321 752.77 205.981 752.14C205.641 751.5 205.471 750.755 205.471 749.905ZM214.671 749.905C214.671 749.055 214.841 748.315 215.181 747.685C215.521 747.045 215.991 746.555 216.591 746.215C217.191 745.865 217.876 745.69 218.646 745.69C219.656 745.69 220.486 745.94 221.136 746.44C221.796 746.94 222.221 747.62 222.411 748.48H221.286C221.146 747.89 220.841 747.43 220.371 747.1C219.911 746.76 219.336 746.59 218.646 746.59C218.096 746.59 217.601 746.715 217.161 746.965C216.721 747.215 216.371 747.59 216.111 748.09C215.861 748.58 215.736 749.185 215.736 749.905C215.736 750.625 215.861 751.235 216.111 751.735C216.371 752.235 216.721 752.61 217.161 752.86C217.601 753.11 218.096 753.235 218.646 753.235C219.336 753.235 219.911 753.07 220.371 752.74C220.841 752.4 221.146 751.93 221.286 751.33H222.411C222.221 752.17 221.796 752.845 221.136 753.355C220.476 753.865 219.646 754.12 218.646 754.12C217.876 754.12 217.191 753.95 216.591 753.61C215.991 753.26 215.521 752.77 215.181 752.14C214.841 751.5 214.671 750.755 214.671 749.905ZM227.935 754.12C227.165 754.12 226.47 753.95 225.85 753.61C225.24 753.26 224.755 752.77 224.395 752.14C224.045 751.5 223.87 750.755 223.87 749.905C223.87 749.055 224.05 748.315 224.41 747.685C224.77 747.045 225.26 746.555 225.88 746.215C226.5 745.865 227.195 745.69 227.965 745.69C228.735 745.69 229.43 745.865 230.05 746.215C230.68 746.555 231.17 747.045 231.52 747.685C231.88 748.315 232.06 749.055 232.06 749.905C232.06 750.745 231.88 751.485 231.52 752.125C231.16 752.765 230.665 753.26 230.035 753.61C229.405 753.95 228.705 754.12 227.935 754.12ZM227.935 753.205C228.475 753.205 228.975 753.085 229.435 752.845C229.895 752.595 230.265 752.225 230.545 751.735C230.835 751.235 230.98 750.625 230.98 749.905C230.98 749.185 230.84 748.58 230.56 748.09C230.28 747.59 229.91 747.22 229.45 746.98C228.99 746.73 228.49 746.605 227.95 746.605C227.41 746.605 226.91 746.73 226.45 746.98C225.99 747.22 225.62 747.59 225.34 748.09C225.07 748.58 224.935 749.185 224.935 749.905C224.935 750.625 225.07 751.235 225.34 751.735C225.62 752.225 225.985 752.595 226.435 752.845C226.895 753.085 227.395 753.205 227.935 753.205ZM241.069 745.81V754H240.019V752.56C239.779 753.07 239.409 753.46 238.909 753.73C238.409 754 237.849 754.135 237.229 754.135C236.249 754.135 235.449 753.835 234.829 753.235C234.209 752.625 233.899 751.745 233.899 750.595V745.81H234.934V750.475C234.934 751.365 235.154 752.045 235.594 752.515C236.044 752.985 236.654 753.22 237.424 753.22C238.214 753.22 238.844 752.97 239.314 752.47C239.784 751.97 240.019 751.235 240.019 750.265V745.81H241.069ZM247.306 745.66C248.286 745.66 249.086 745.965 249.706 746.575C250.326 747.175 250.636 748.05 250.636 749.2V754H249.601V749.32C249.601 748.43 249.376 747.75 248.926 747.28C248.486 746.81 247.881 746.575 247.111 746.575C246.321 746.575 245.691 746.825 245.221 747.325C244.751 747.825 244.516 748.56 244.516 749.53V754H243.466V745.81H244.516V747.205C244.776 746.705 245.151 746.325 245.641 746.065C246.131 745.795 246.686 745.66 247.306 745.66ZM254.323 746.695V751.78C254.323 752.28 254.418 752.625 254.608 752.815C254.798 753.005 255.133 753.1 255.613 753.1H256.573V754H255.448C254.708 754 254.158 753.83 253.798 753.49C253.438 753.14 253.258 752.57 253.258 751.78V746.695H252.118V745.81H253.258V743.755H254.323V745.81H256.573V746.695H254.323ZM260.84 743.38C261.48 743.38 262.045 743.505 262.535 743.755C263.035 744.005 263.42 744.365 263.69 744.835C263.97 745.295 264.11 745.83 264.11 746.44C264.11 747.52 263.775 748.315 263.105 748.825C262.445 749.325 261.54 749.575 260.39 749.575L260.345 751.225H259.445L259.385 748.825H259.775C260.805 748.825 261.615 748.665 262.205 748.345C262.805 748.015 263.105 747.38 263.105 746.44C263.105 745.78 262.895 745.255 262.475 744.865C262.065 744.475 261.52 744.28 260.84 744.28C260.16 744.28 259.62 744.465 259.22 744.835C258.82 745.205 258.62 745.71 258.62 746.35H257.615C257.615 745.75 257.75 745.23 258.02 744.79C258.3 744.34 258.68 743.995 259.16 743.755C259.65 743.505 260.21 743.38 260.84 743.38ZM259.895 754.075C259.675 754.075 259.49 754 259.34 753.85C259.2 753.7 259.13 753.515 259.13 753.295C259.13 753.075 259.2 752.895 259.34 752.755C259.49 752.605 259.675 752.53 259.895 752.53C260.105 752.53 260.28 752.605 260.42 752.755C260.57 752.895 260.645 753.075 260.645 753.295C260.645 753.515 260.57 753.7 260.42 753.85C260.28 754 260.105 754.075 259.895 754.075Z" fill="#C0C0C5"/>
<path d="M273.547 754.105C272.817 754.105 272.157 753.98 271.567 753.73C270.987 753.48 270.527 753.12 270.187 752.65C269.847 752.18 269.672 751.625 269.662 750.985H271.912C271.942 751.415 272.092 751.755 272.362 752.005C272.642 752.255 273.022 752.38 273.502 752.38C273.992 752.38 274.377 752.265 274.657 752.035C274.937 751.795 275.077 751.485 275.077 751.105C275.077 750.795 274.982 750.54 274.792 750.34C274.602 750.14 274.362 749.985 274.072 749.875C273.792 749.755 273.402 749.625 272.902 749.485C272.222 749.285 271.667 749.09 271.237 748.9C270.817 748.7 270.452 748.405 270.142 748.015C269.842 747.615 269.692 747.085 269.692 746.425C269.692 745.805 269.847 745.265 270.157 744.805C270.467 744.345 270.902 743.995 271.462 743.755C272.022 743.505 272.662 743.38 273.382 743.38C274.462 743.38 275.337 743.645 276.007 744.175C276.687 744.695 277.062 745.425 277.132 746.365H274.822C274.802 746.005 274.647 745.71 274.357 745.48C274.077 745.24 273.702 745.12 273.232 745.12C272.822 745.12 272.492 745.225 272.242 745.435C272.002 745.645 271.882 745.95 271.882 746.35C271.882 746.63 271.972 746.865 272.152 747.055C272.342 747.235 272.572 747.385 272.842 747.505C273.122 747.615 273.512 747.745 274.012 747.895C274.692 748.095 275.247 748.295 275.677 748.495C276.107 748.695 276.477 748.995 276.787 749.395C277.097 749.795 277.252 750.32 277.252 750.97C277.252 751.53 277.107 752.05 276.817 752.53C276.527 753.01 276.102 753.395 275.542 753.685C274.982 753.965 274.317 754.105 273.547 754.105ZM280.138 744.7C279.768 744.7 279.458 744.585 279.208 744.355C278.968 744.115 278.848 743.82 278.848 743.47C278.848 743.12 278.968 742.83 279.208 742.6C279.458 742.36 279.768 742.24 280.138 742.24C280.508 742.24 280.813 742.36 281.053 742.6C281.303 742.83 281.428 743.12 281.428 743.47C281.428 743.82 281.303 744.115 281.053 744.355C280.813 744.585 280.508 744.7 280.138 744.7ZM281.173 745.69V754H279.073V745.69H281.173ZM286.502 745.555C287.122 745.555 287.667 745.68 288.137 745.93C288.607 746.17 288.977 746.485 289.247 746.875V745.69H291.362V754.06C291.362 754.83 291.207 755.515 290.897 756.115C290.587 756.725 290.122 757.205 289.502 757.555C288.882 757.915 288.132 758.095 287.252 758.095C286.072 758.095 285.102 757.82 284.342 757.27C283.592 756.72 283.167 755.97 283.067 755.02H285.152C285.262 755.4 285.497 755.7 285.857 755.92C286.227 756.15 286.672 756.265 287.192 756.265C287.802 756.265 288.297 756.08 288.677 755.71C289.057 755.35 289.247 754.8 289.247 754.06V752.77C288.977 753.16 288.602 753.485 288.122 753.745C287.652 754.005 287.112 754.135 286.502 754.135C285.802 754.135 285.162 753.955 284.582 753.595C284.002 753.235 283.542 752.73 283.202 752.08C282.872 751.42 282.707 750.665 282.707 749.815C282.707 748.975 282.872 748.23 283.202 747.58C283.542 746.93 283.997 746.43 284.567 746.08C285.147 745.73 285.792 745.555 286.502 745.555ZM289.247 749.845C289.247 749.335 289.147 748.9 288.947 748.54C288.747 748.17 288.477 747.89 288.137 747.7C287.797 747.5 287.432 747.4 287.042 747.4C286.652 747.4 286.292 747.495 285.962 747.685C285.632 747.875 285.362 748.155 285.152 748.525C284.952 748.885 284.852 749.315 284.852 749.815C284.852 750.315 284.952 750.755 285.152 751.135C285.362 751.505 285.632 751.79 285.962 751.99C286.302 752.19 286.662 752.29 287.042 752.29C287.432 752.29 287.797 752.195 288.137 752.005C288.477 751.805 288.747 751.525 288.947 751.165C289.147 750.795 289.247 750.355 289.247 749.845ZM298.018 745.57C299.008 745.57 299.808 745.885 300.418 746.515C301.028 747.135 301.333 748.005 301.333 749.125V754H299.233V749.41C299.233 748.75 299.068 748.245 298.738 747.895C298.408 747.535 297.958 747.355 297.388 747.355C296.808 747.355 296.348 747.535 296.008 747.895C295.678 748.245 295.513 748.75 295.513 749.41V754H293.413V745.69H295.513V746.725C295.793 746.365 296.148 746.085 296.578 745.885C297.018 745.675 297.498 745.57 298.018 745.57ZM308.975 743.53V750.01C308.975 750.72 309.16 751.265 309.53 751.645C309.9 752.015 310.42 752.2 311.09 752.2C311.77 752.2 312.295 752.015 312.665 751.645C313.035 751.265 313.22 750.72 313.22 750.01V743.53H315.335V749.995C315.335 750.885 315.14 751.64 314.75 752.26C314.37 752.87 313.855 753.33 313.205 753.64C312.565 753.95 311.85 754.105 311.06 754.105C310.28 754.105 309.57 753.95 308.93 753.64C308.3 753.33 307.8 752.87 307.43 752.26C307.06 751.64 306.875 750.885 306.875 749.995V743.53H308.975ZM319.464 746.89C319.734 746.51 320.104 746.195 320.574 745.945C321.054 745.685 321.599 745.555 322.209 745.555C322.919 745.555 323.559 745.73 324.129 746.08C324.709 746.43 325.164 746.93 325.494 747.58C325.834 748.22 326.004 748.965 326.004 749.815C326.004 750.665 325.834 751.42 325.494 752.08C325.164 752.73 324.709 753.235 324.129 753.595C323.559 753.955 322.919 754.135 322.209 754.135C321.599 754.135 321.059 754.01 320.589 753.76C320.129 753.51 319.754 753.195 319.464 752.815V757.96H317.364V745.69H319.464V746.89ZM323.859 749.815C323.859 749.315 323.754 748.885 323.544 748.525C323.344 748.155 323.074 747.875 322.734 747.685C322.404 747.495 322.044 747.4 321.654 747.4C321.274 747.4 320.914 747.5 320.574 747.7C320.244 747.89 319.974 748.17 319.764 748.54C319.564 748.91 319.464 749.345 319.464 749.845C319.464 750.345 319.564 750.78 319.764 751.15C319.974 751.52 320.244 751.805 320.574 752.005C320.914 752.195 321.274 752.29 321.654 752.29C322.044 752.29 322.404 752.19 322.734 751.99C323.074 751.79 323.344 751.505 323.544 751.135C323.754 750.765 323.859 750.325 323.859 749.815Z" fill="#6488E5"/>
<rect x="29" y="506" width="361" height="58.9111" rx="29.4556" fill="#93ACED"/>
<path opacity="0.2" d="M208.426 419C252.609 419 288.426 383.183 288.426 339C288.426 294.817 252.609 259 208.426 259C164.243 259 128.426 294.817 128.426 339C128.426 383.183 164.243 419 208.426 419Z" fill="#6488E5"/>
<path opacity="0.2" d="M208.426 395.338C239.541 395.338 264.764 370.115 264.764 339C264.764 307.885 239.541 282.662 208.426 282.662C177.312 282.662 152.088 307.885 152.088 339C152.088 370.115 177.312 395.338 208.426 395.338Z" fill="#6488E5"/>
<path d="M208.426 376.183C228.962 376.183 245.609 359.536 245.609 339C245.609 318.464 228.962 301.817 208.426 301.817C187.891 301.817 171.243 318.464 171.243 339C171.243 359.536 187.891 376.183 208.426 376.183Z" fill="#6488E5"/>
<path d="M215.187 330.98C215.187 329.839 214.899 328.717 214.349 327.717C213.798 326.718 213.004 325.874 212.04 325.264C211.075 324.655 209.972 324.299 208.834 324.23C207.695 324.161 206.557 324.382 205.526 324.871C204.496 325.361 203.606 326.103 202.939 327.029C202.273 327.955 201.852 329.035 201.715 330.168C201.578 331.3 201.73 332.449 202.157 333.507C202.584 334.566 203.271 335.498 204.156 336.219L201.666 353.648H215.187L212.697 336.219C213.476 335.586 214.103 334.787 214.534 333.881C214.965 332.975 215.188 331.984 215.187 330.98Z" fill="#FFF9ED"/>
<path d="M32 473.16V478.38H37.3V479.54H32V484.84H37.9V486H30.6V472H37.9V473.16H32ZM45.7786 474.88C47.0853 474.88 48.1519 475.287 48.9786 476.1C49.8053 476.9 50.2186 478.067 50.2186 479.6V486H48.8386V479.76C48.8386 478.573 48.5386 477.667 47.9386 477.04C47.3519 476.413 46.5453 476.1 45.5186 476.1C44.4653 476.1 43.6253 476.433 42.9986 477.1C42.3719 477.767 42.0586 478.747 42.0586 480.04V486H40.6586V475.08H42.0586V476.94C42.4053 476.273 42.9053 475.767 43.5586 475.42C44.2119 475.06 44.9519 474.88 45.7786 474.88ZM55.1348 476.26V483.04C55.1348 483.707 55.2615 484.167 55.5148 484.42C55.7682 484.673 56.2148 484.8 56.8548 484.8H58.1348V486H56.6348C55.6482 486 54.9148 485.773 54.4348 485.32C53.9548 484.853 53.7148 484.093 53.7148 483.04V476.26H52.1948V475.08H53.7148V472.34H55.1348V475.08H58.1348V476.26H55.1348ZM70.3238 479.98C70.3238 480.46 70.3104 480.827 70.2838 481.08H61.2238C61.2638 481.907 61.4638 482.613 61.8238 483.2C62.1838 483.787 62.6571 484.233 63.2438 484.54C63.8304 484.833 64.4704 484.98 65.1638 484.98C66.0704 484.98 66.8304 484.76 67.4438 484.32C68.0704 483.88 68.4838 483.287 68.6838 482.54H70.1638C69.8971 483.607 69.3238 484.48 68.4438 485.16C67.5771 485.827 66.4838 486.16 65.1638 486.16C64.1371 486.16 63.2171 485.933 62.4038 485.48C61.5904 485.013 60.9504 484.36 60.4838 483.52C60.0304 482.667 59.8038 481.673 59.8038 480.54C59.8038 479.407 60.0304 478.413 60.4838 477.56C60.9371 476.707 61.5704 476.053 62.3838 475.6C63.1971 475.147 64.1238 474.92 65.1638 474.92C66.2038 474.92 67.1104 475.147 67.8838 475.6C68.6704 476.053 69.2704 476.667 69.6838 477.44C70.1104 478.2 70.3238 479.047 70.3238 479.98ZM68.9038 479.94C68.9171 479.127 68.7504 478.433 68.4038 477.86C68.0704 477.287 67.6104 476.853 67.0238 476.56C66.4371 476.267 65.7971 476.12 65.1038 476.12C64.0638 476.12 63.1771 476.453 62.4438 477.12C61.7104 477.787 61.3038 478.727 61.2238 479.94H68.9038ZM74.2852 477.02C74.5918 476.34 75.0585 475.813 75.6852 475.44C76.3252 475.067 77.1052 474.88 78.0252 474.88V476.34H77.6452C76.6318 476.34 75.8185 476.613 75.2052 477.16C74.5918 477.707 74.2852 478.62 74.2852 479.9V486H72.8852V475.08H74.2852V477.02ZM87.0195 473.16V478.38H92.3195V479.54H87.0195V484.84H92.9195V486H85.6195V472H92.9195V473.16H87.0195ZM108.678 474.88C109.958 474.88 110.998 475.287 111.798 476.1C112.611 476.9 113.018 478.067 113.018 479.6V486H111.638V479.76C111.638 478.573 111.351 477.667 110.778 477.04C110.205 476.413 109.425 476.1 108.438 476.1C107.411 476.1 106.591 476.44 105.978 477.12C105.365 477.8 105.058 478.787 105.058 480.08V486H103.678V479.76C103.678 478.573 103.391 477.667 102.818 477.04C102.245 476.413 101.458 476.1 100.458 476.1C99.4315 476.1 98.6115 476.44 97.9981 477.12C97.3848 477.8 97.0781 478.787 97.0781 480.08V486H95.6781V475.08H97.0781V476.96C97.4248 476.28 97.9181 475.767 98.5581 475.42C99.1981 475.06 99.9115 474.88 100.698 474.88C101.645 474.88 102.471 475.107 103.178 475.56C103.898 476.013 104.418 476.68 104.738 477.56C105.031 476.693 105.531 476.033 106.238 475.58C106.958 475.113 107.771 474.88 108.678 474.88ZM115.487 480.52C115.487 479.4 115.707 478.42 116.147 477.58C116.601 476.727 117.221 476.073 118.007 475.62C118.807 475.153 119.707 474.92 120.707 474.92C121.747 474.92 122.641 475.16 123.387 475.64C124.147 476.12 124.694 476.733 125.027 477.48V475.08H126.427V486H125.027V483.58C124.681 484.327 124.127 484.947 123.367 485.44C122.621 485.92 121.727 486.16 120.687 486.16C119.701 486.16 118.807 485.927 118.007 485.46C117.221 484.993 116.601 484.333 116.147 483.48C115.707 482.627 115.487 481.64 115.487 480.52ZM125.027 480.54C125.027 479.66 124.847 478.887 124.487 478.22C124.127 477.553 123.634 477.04 123.007 476.68C122.394 476.32 121.714 476.14 120.967 476.14C120.194 476.14 119.501 476.313 118.887 476.66C118.274 477.007 117.787 477.513 117.427 478.18C117.081 478.833 116.907 479.613 116.907 480.52C116.907 481.413 117.081 482.2 117.427 482.88C117.787 483.547 118.274 484.06 118.887 484.42C119.501 484.767 120.194 484.94 120.967 484.94C121.714 484.94 122.394 484.76 123.007 484.4C123.634 484.04 124.127 483.527 124.487 482.86C124.847 482.193 125.027 481.42 125.027 480.54ZM130.323 473.02C130.043 473.02 129.803 472.92 129.603 472.72C129.403 472.52 129.303 472.273 129.303 471.98C129.303 471.687 129.403 471.447 129.603 471.26C129.803 471.06 130.043 470.96 130.323 470.96C130.603 470.96 130.843 471.06 131.043 471.26C131.243 471.447 131.343 471.687 131.343 471.98C131.343 472.273 131.243 472.52 131.043 472.72C130.843 472.92 130.603 473.02 130.323 473.02ZM131.023 475.08V486H129.623V475.08H131.023ZM135.594 471.2V486H134.194V471.2H135.594ZM152.352 482.68H145.992L144.772 486H143.292L148.392 472.2H149.972L155.052 486H153.572L152.352 482.68ZM151.932 481.52L149.172 473.96L146.412 481.52H151.932ZM156.659 480.52C156.659 479.4 156.886 478.42 157.339 477.58C157.793 476.727 158.413 476.073 159.199 475.62C159.999 475.153 160.899 474.92 161.899 474.92C162.859 474.92 163.726 475.153 164.499 475.62C165.273 476.087 165.839 476.693 166.199 477.44V471.2H167.599V486H166.199V483.56C165.866 484.32 165.319 484.947 164.559 485.44C163.799 485.92 162.906 486.16 161.879 486.16C160.879 486.16 159.979 485.927 159.179 485.46C158.393 484.993 157.773 484.333 157.319 483.48C156.879 482.627 156.659 481.64 156.659 480.52ZM166.199 480.54C166.199 479.66 166.019 478.887 165.659 478.22C165.299 477.553 164.806 477.04 164.179 476.68C163.566 476.32 162.886 476.14 162.139 476.14C161.366 476.14 160.673 476.313 160.059 476.66C159.446 477.007 158.959 477.513 158.599 478.18C158.253 478.833 158.079 479.613 158.079 480.52C158.079 481.413 158.253 482.2 158.599 482.88C158.959 483.547 159.446 484.06 160.059 484.42C160.673 484.767 161.366 484.94 162.139 484.94C162.886 484.94 163.566 484.76 164.179 484.4C164.806 484.04 165.299 483.527 165.659 482.86C166.019 482.193 166.199 481.42 166.199 480.54ZM170.155 480.52C170.155 479.4 170.382 478.42 170.835 477.58C171.289 476.727 171.909 476.073 172.695 475.62C173.495 475.153 174.395 474.92 175.395 474.92C176.355 474.92 177.222 475.153 177.995 475.62C178.769 476.087 179.335 476.693 179.695 477.44V471.2H181.095V486H179.695V483.56C179.362 484.32 178.815 484.947 178.055 485.44C177.295 485.92 176.402 486.16 175.375 486.16C174.375 486.16 173.475 485.927 172.675 485.46C171.889 484.993 171.269 484.333 170.815 483.48C170.375 482.627 170.155 481.64 170.155 480.52ZM179.695 480.54C179.695 479.66 179.515 478.887 179.155 478.22C178.795 477.553 178.302 477.04 177.675 476.68C177.062 476.32 176.382 476.14 175.635 476.14C174.862 476.14 174.169 476.313 173.555 476.66C172.942 477.007 172.455 477.513 172.095 478.18C171.749 478.833 171.575 479.613 171.575 480.52C171.575 481.413 171.749 482.2 172.095 482.88C172.455 483.547 172.942 484.06 173.555 484.42C174.169 484.767 174.862 484.94 175.635 484.94C176.382 484.94 177.062 484.76 177.675 484.4C178.302 484.04 178.795 483.527 179.155 482.86C179.515 482.193 179.695 481.42 179.695 480.54ZM185.691 477.02C185.998 476.34 186.465 475.813 187.091 475.44C187.731 475.067 188.511 474.88 189.431 474.88V476.34H189.051C188.038 476.34 187.225 476.613 186.611 477.16C185.998 477.707 185.691 478.62 185.691 479.9V486H184.291V475.08H185.691V477.02ZM201.418 479.98C201.418 480.46 201.404 480.827 201.378 481.08H192.318C192.358 481.907 192.558 482.613 192.918 483.2C193.278 483.787 193.751 484.233 194.338 484.54C194.924 484.833 195.564 484.98 196.258 484.98C197.164 484.98 197.924 484.76 198.538 484.32C199.164 483.88 199.578 483.287 199.778 482.54H201.258C200.991 483.607 200.418 484.48 199.538 485.16C198.671 485.827 197.578 486.16 196.258 486.16C195.231 486.16 194.311 485.933 193.498 485.48C192.684 485.013 192.044 484.36 191.578 483.52C191.124 482.667 190.898 481.673 190.898 480.54C190.898 479.407 191.124 478.413 191.578 477.56C192.031 476.707 192.664 476.053 193.478 475.6C194.291 475.147 195.218 474.92 196.258 474.92C197.298 474.92 198.204 475.147 198.978 475.6C199.764 476.053 200.364 476.667 200.778 477.44C201.204 478.2 201.418 479.047 201.418 479.98ZM199.998 479.94C200.011 479.127 199.844 478.433 199.498 477.86C199.164 477.287 198.704 476.853 198.118 476.56C197.531 476.267 196.891 476.12 196.198 476.12C195.158 476.12 194.271 476.453 193.538 477.12C192.804 477.787 192.398 478.727 192.318 479.94H199.998ZM207.739 486.16C206.486 486.16 205.459 485.873 204.659 485.3C203.872 484.713 203.432 483.92 203.339 482.92H204.779C204.846 483.533 205.132 484.033 205.639 484.42C206.159 484.793 206.852 484.98 207.719 484.98C208.479 484.98 209.072 484.8 209.499 484.44C209.939 484.08 210.159 483.633 210.159 483.1C210.159 482.727 210.039 482.42 209.799 482.18C209.559 481.94 209.252 481.753 208.879 481.62C208.519 481.473 208.026 481.32 207.399 481.16C206.586 480.947 205.926 480.733 205.419 480.52C204.912 480.307 204.479 479.993 204.119 479.58C203.772 479.153 203.599 478.587 203.599 477.88C203.599 477.347 203.759 476.853 204.079 476.4C204.399 475.947 204.852 475.587 205.439 475.32C206.026 475.053 206.692 474.92 207.439 474.92C208.612 474.92 209.559 475.22 210.279 475.82C210.999 476.407 211.386 477.22 211.439 478.26H210.039C209.999 477.62 209.746 477.107 209.279 476.72C208.826 476.32 208.199 476.12 207.399 476.12C206.692 476.12 206.119 476.287 205.679 476.62C205.239 476.953 205.019 477.367 205.019 477.86C205.019 478.287 205.146 478.64 205.399 478.92C205.666 479.187 205.992 479.4 206.379 479.56C206.766 479.707 207.286 479.873 207.939 480.06C208.726 480.273 209.352 480.48 209.819 480.68C210.286 480.88 210.686 481.173 211.019 481.56C211.352 481.947 211.526 482.46 211.539 483.1C211.539 483.687 211.379 484.213 211.059 484.68C210.739 485.133 210.292 485.493 209.719 485.76C209.146 486.027 208.486 486.16 207.739 486.16ZM217.934 486.16C216.681 486.16 215.654 485.873 214.854 485.3C214.068 484.713 213.628 483.92 213.534 482.92H214.974C215.041 483.533 215.328 484.033 215.834 484.42C216.354 484.793 217.048 484.98 217.914 484.98C218.674 484.98 219.268 484.8 219.694 484.44C220.134 484.08 220.354 483.633 220.354 483.1C220.354 482.727 220.234 482.42 219.994 482.18C219.754 481.94 219.448 481.753 219.074 481.62C218.714 481.473 218.221 481.32 217.594 481.16C216.781 480.947 216.121 480.733 215.614 480.52C215.108 480.307 214.674 479.993 214.314 479.58C213.968 479.153 213.794 478.587 213.794 477.88C213.794 477.347 213.954 476.853 214.274 476.4C214.594 475.947 215.048 475.587 215.634 475.32C216.221 475.053 216.888 474.92 217.634 474.92C218.808 474.92 219.754 475.22 220.474 475.82C221.194 476.407 221.581 477.22 221.634 478.26H220.234C220.194 477.62 219.941 477.107 219.474 476.72C219.021 476.32 218.394 476.12 217.594 476.12C216.888 476.12 216.314 476.287 215.874 476.62C215.434 476.953 215.214 477.367 215.214 477.86C215.214 478.287 215.341 478.64 215.594 478.92C215.861 479.187 216.188 479.4 216.574 479.56C216.961 479.707 217.481 479.873 218.134 480.06C218.921 480.273 219.548 480.48 220.014 480.68C220.481 480.88 220.881 481.173 221.214 481.56C221.548 481.947 221.721 482.46 221.734 483.1C221.734 483.687 221.574 484.213 221.254 484.68C220.934 485.133 220.488 485.493 219.914 485.76C219.341 486.027 218.681 486.16 217.934 486.16Z" fill="black"/>
<g filter="url(#filter0_d_101_2158)">
<rect x="126" y="603" width="161" height="48" rx="24" fill="#6CE378"/>
</g>
<path d="M156.518 634.14C155.545 634.14 154.665 633.973 153.878 633.64C153.105 633.307 152.492 632.827 152.038 632.2C151.585 631.573 151.352 630.833 151.338 629.98H154.338C154.378 630.553 154.578 631.007 154.938 631.34C155.312 631.673 155.818 631.84 156.458 631.84C157.112 631.84 157.625 631.687 157.998 631.38C158.372 631.06 158.558 630.647 158.558 630.14C158.558 629.727 158.432 629.387 158.178 629.12C157.925 628.853 157.605 628.647 157.218 628.5C156.845 628.34 156.325 628.167 155.658 627.98C154.752 627.713 154.012 627.453 153.438 627.2C152.878 626.933 152.392 626.54 151.978 626.02C151.578 625.487 151.378 624.78 151.378 623.9C151.378 623.073 151.585 622.353 151.998 621.74C152.412 621.127 152.992 620.66 153.738 620.34C154.485 620.007 155.338 619.84 156.298 619.84C157.738 619.84 158.905 620.193 159.798 620.9C160.705 621.593 161.205 622.567 161.298 623.82H158.218C158.192 623.34 157.985 622.947 157.598 622.64C157.225 622.32 156.725 622.16 156.098 622.16C155.552 622.16 155.112 622.3 154.778 622.58C154.458 622.86 154.298 623.267 154.298 623.8C154.298 624.173 154.418 624.487 154.658 624.74C154.912 624.98 155.218 625.18 155.578 625.34C155.952 625.487 156.472 625.66 157.138 625.86C158.045 626.127 158.785 626.393 159.358 626.66C159.932 626.927 160.425 627.327 160.838 627.86C161.252 628.393 161.458 629.093 161.458 629.96C161.458 630.707 161.265 631.4 160.878 632.04C160.492 632.68 159.925 633.193 159.178 633.58C158.432 633.953 157.545 634.14 156.518 634.14ZM174.186 628.22C174.186 628.62 174.159 628.98 174.106 629.3H166.006C166.073 630.1 166.353 630.727 166.846 631.18C167.339 631.633 167.946 631.86 168.666 631.86C169.706 631.86 170.446 631.413 170.886 630.52H173.906C173.586 631.587 172.973 632.467 172.066 633.16C171.159 633.84 170.046 634.18 168.726 634.18C167.659 634.18 166.699 633.947 165.846 633.48C165.006 633 164.346 632.327 163.866 631.46C163.399 630.593 163.166 629.593 163.166 628.46C163.166 627.313 163.399 626.307 163.866 625.44C164.333 624.573 164.986 623.907 165.826 623.44C166.666 622.973 167.633 622.74 168.726 622.74C169.779 622.74 170.719 622.967 171.546 623.42C172.386 623.873 173.033 624.52 173.486 625.36C173.953 626.187 174.186 627.14 174.186 628.22ZM171.286 627.42C171.273 626.7 171.013 626.127 170.506 625.7C169.999 625.26 169.379 625.04 168.646 625.04C167.953 625.04 167.366 625.253 166.886 625.68C166.419 626.093 166.133 626.673 166.026 627.42H171.286ZM182.37 622.76C183.69 622.76 184.756 623.18 185.57 624.02C186.383 624.847 186.79 626.007 186.79 627.5V634H183.99V627.88C183.99 627 183.77 626.327 183.33 625.86C182.89 625.38 182.29 625.14 181.53 625.14C180.756 625.14 180.143 625.38 179.69 625.86C179.25 626.327 179.03 627 179.03 627.88V634H176.23V622.92H179.03V624.3C179.403 623.82 179.876 623.447 180.45 623.18C181.036 622.9 181.676 622.76 182.37 622.76ZM188.732 628.42C188.732 627.3 188.952 626.307 189.392 625.44C189.846 624.573 190.459 623.907 191.232 623.44C192.006 622.973 192.866 622.74 193.812 622.74C194.532 622.74 195.219 622.9 195.872 623.22C196.526 623.527 197.046 623.94 197.432 624.46V619.2H200.272V634H197.432V632.36C197.086 632.907 196.599 633.347 195.972 633.68C195.346 634.013 194.619 634.18 193.792 634.18C192.859 634.18 192.006 633.94 191.232 633.46C190.459 632.98 189.846 632.307 189.392 631.44C188.952 630.56 188.732 629.553 188.732 628.42ZM197.452 628.46C197.452 627.78 197.319 627.2 197.052 626.72C196.786 626.227 196.426 625.853 195.972 625.6C195.519 625.333 195.032 625.2 194.512 625.2C193.992 625.2 193.512 625.327 193.072 625.58C192.632 625.833 192.272 626.207 191.992 626.7C191.726 627.18 191.592 627.753 191.592 628.42C191.592 629.087 191.726 629.673 191.992 630.18C192.272 630.673 192.632 631.053 193.072 631.32C193.526 631.587 194.006 631.72 194.512 631.72C195.032 631.72 195.519 631.593 195.972 631.34C196.426 631.073 196.786 630.7 197.052 630.22C197.319 629.727 197.452 629.14 197.452 628.46ZM210.573 622.3V625.8H215.273V628.02H210.573V631.72H215.873V634H207.773V620.02H215.873V622.3H210.573ZM232.177 622.76C233.537 622.76 234.63 623.18 235.457 624.02C236.297 624.847 236.717 626.007 236.717 627.5V634H233.917V627.88C233.917 627.013 233.697 626.353 233.257 625.9C232.817 625.433 232.217 625.2 231.457 625.2C230.697 625.2 230.09 625.433 229.637 625.9C229.197 626.353 228.977 627.013 228.977 627.88V634H226.177V627.88C226.177 627.013 225.957 626.353 225.517 625.9C225.077 625.433 224.477 625.2 223.717 625.2C222.944 625.2 222.33 625.433 221.877 625.9C221.437 626.353 221.217 627.013 221.217 627.88V634H218.417V622.92H221.217V624.26C221.577 623.793 222.037 623.427 222.597 623.16C223.17 622.893 223.797 622.76 224.477 622.76C225.344 622.76 226.117 622.947 226.797 623.32C227.477 623.68 228.004 624.2 228.377 624.88C228.737 624.24 229.257 623.727 229.937 623.34C230.63 622.953 231.377 622.76 232.177 622.76ZM238.654 628.42C238.654 627.3 238.874 626.307 239.314 625.44C239.767 624.573 240.374 623.907 241.134 623.44C241.907 622.973 242.767 622.74 243.714 622.74C244.541 622.74 245.261 622.907 245.874 623.24C246.501 623.573 247.001 623.993 247.374 624.5V622.92H250.194V634H247.374V632.38C247.014 632.9 246.514 633.333 245.874 633.68C245.247 634.013 244.521 634.18 243.694 634.18C242.761 634.18 241.907 633.94 241.134 633.46C240.374 632.98 239.767 632.307 239.314 631.44C238.874 630.56 238.654 629.553 238.654 628.42ZM247.374 628.46C247.374 627.78 247.241 627.2 246.974 626.72C246.707 626.227 246.347 625.853 245.894 625.6C245.441 625.333 244.954 625.2 244.434 625.2C243.914 625.2 243.434 625.327 242.994 625.58C242.554 625.833 242.194 626.207 241.914 626.7C241.647 627.18 241.514 627.753 241.514 628.42C241.514 629.087 241.647 629.673 241.914 630.18C242.194 630.673 242.554 631.053 242.994 631.32C243.447 631.587 243.927 631.72 244.434 631.72C244.954 631.72 245.441 631.593 245.894 631.34C246.347 631.073 246.707 630.7 246.974 630.22C247.241 629.727 247.374 629.14 247.374 628.46ZM254.349 621.6C253.855 621.6 253.442 621.447 253.109 621.14C252.789 620.82 252.629 620.427 252.629 619.96C252.629 619.493 252.789 619.107 253.109 618.8C253.442 618.48 253.855 618.32 254.349 618.32C254.842 618.32 255.249 618.48 255.569 618.8C255.902 619.107 256.069 619.493 256.069 619.96C256.069 620.427 255.902 620.82 255.569 621.14C255.249 621.447 254.842 621.6 254.349 621.6ZM255.729 622.92V634H252.929V622.92H255.729ZM261.295 619.2V634H258.495V619.2H261.295Z" fill="white"/>
</g>
<defs>
<filter id="filter0_d_101_2158" x="122" y="603" width="169" height="56" filterUnits="userSpaceOnUse" color-interpolation-filters="sRGB">
<feFlood flood-opacity="0" result="BackgroundImageFix"/>
<feColorMatrix in="SourceAlpha" type="matrix" values="0 0 0 0 0 0 0 0 0 0 0 0 0 0 0 0 0 0 127 0" result="hardAlpha"/>
<feOffset dy="4"/>
<feGaussianBlur stdDeviation="2"/>
<feColorMatrix type="matrix" values="0 0 0 0 0 0 0 0 0 0 0 0 0 0 0 0 0 0 0.25 0"/>
<feBlend mode="normal" in2="BackgroundImageFix" result="effect1_dropShadow_101_2158"/>
<feBlend mode="normal" in="SourceGraphic" in2="effect1_dropShadow_101_2158" result="shape"/>
</filter>
<clipPath id="clip0_101_2158">
<rect width="414" height="896" fill="white"/>
</clipPath>
</defs>
</svg>
