<svg width="48" height="42" viewBox="0 0 48 42" fill="none" xmlns="http://www.w3.org/2000/svg">
<path d="M10 0C4.47716 0 0 3.91752 0 8.75V33.25C0 38.0825 4.47716 42 10 42H38C43.5228 42 48 38.0825 48 33.25V8.75C48 3.91752 43.5228 0 38 0H10ZM44 21H34L33.6404 21.0282C32.7076 21.1764 32 21.8909 32 22.75C32 22.9326 31.9686 23.3166 31.871 23.8295C31.7064 24.6938 31.411 25.5551 30.9612 26.3424C29.7262 28.5037 27.5894 29.75 24 29.75C20.4106 29.75 18.2738 28.5037 17.0388 26.3424C16.589 25.5551 16.2936 24.6938 16.129 23.8295C16.0314 23.3166 16 22.9326 16 22.75C16 21.7835 15.1046 21 14 21H4V8.75C4 5.85049 6.68628 3.5 10 3.5H38C41.3136 3.5 44 5.85049 44 8.75V21ZM4 24.5H12.176L12.3176 25.109C12.5452 25.9899 12.9105 26.944 13.4612 27.9076C15.3512 31.2151 18.8394 33.25 24 33.25C29.1606 33.25 32.6488 31.2151 34.5388 27.9076L34.918 27.1877C35.2636 26.4715 35.5116 25.7697 35.6824 25.109L35.82 24.5H44V33.25C44 36.1494 41.3136 38.5 38 38.5H10C6.68628 38.5 4 36.1494 4 33.25V24.5Z" fill="#93ACED"/>
</svg>
